   <svg width="86" height="16" viewBox="0 0 86 16" fill="none" xmlns="http://www.w3.org/2000/svg">
           <path d="M57.029 4.07139H57.7104C58.0686 4.07139 58.3593 4.36388 58.3593 4.7242V8.82989C58.3593 9.81642 58.5458 10.7448 58.9166 11.6145C59.2873 12.482 59.7983 13.2446 60.4502 13.8974C61.0994 14.5503 61.8551 15.0643 62.72 15.4397C63.5826 15.815 64.5057 16 65.4893 16H67.9215C68.2804 16 68.5707 15.7079 68.5707 15.3472V12.5818C68.5707 12.2211 68.2804 11.929 67.9215 11.929H65.4893C65.063 11.929 64.6608 11.8461 64.2827 11.6827C63.9047 11.5197 63.5776 11.2955 63.3014 11.0176C63.0253 10.7398 62.805 10.411 62.6472 10.038C62.4875 9.66536 62.4101 9.26342 62.4101 8.8322V4.7242C62.4101 4.36388 62.7005 4.07139 63.059 4.07139H67.9215C68.2804 4.07139 68.5707 3.7789 68.5707 3.41819V0.653195C68.5707 0.292493 68.2804 0 67.9215 0H57.029C56.6705 0 56.3802 0.292493 56.3802 0.653195V3.41819C56.3802 3.7789 56.6705 4.07139 57.029 4.07139Z" fill="white"></path><path d="M81.1 9.54847C80.8954 10.043 80.6168 10.4805 80.2655 10.8622C79.9124 11.2443 79.5008 11.55 79.0315 11.7804C78.5597 12.0104 78.0577 12.1257 77.5253 12.1257C76.9932 12.1257 76.4912 12.0358 76.0194 11.8564C75.5475 11.677 75.1382 11.4146 74.792 11.0649C74.4433 10.7152 74.1717 10.2847 73.9718 9.77191C73.7719 9.25879 73.672 8.67179 73.672 8.01165C73.672 7.35114 73.7719 6.7645 73.9718 6.25138C74.1717 5.73825 74.4458 5.3081 74.792 4.95838C75.1382 4.60865 75.5475 4.34663 76.0194 4.16686C76.4912 3.98745 76.9932 3.89792 77.5253 3.89792C78.0577 3.89792 78.5597 4.01292 79.0315 4.24291C79.5034 4.47291 79.9146 4.77897 80.2655 5.16072C80.619 5.54283 80.8954 5.97989 81.1 6.47482C81.3047 6.96939 81.4069 7.47996 81.4069 8.00946C81.4069 8.54296 81.3047 9.05391 81.1 9.54847ZM84.2044 0.831188L83.2902 1.91566C83.0697 2.17732 82.6765 2.21262 82.413 1.99318C82.1889 1.80612 81.9555 1.62744 81.7137 1.45676C81.2999 1.16417 80.8652 0.909066 80.4073 0.692899C79.9495 0.476368 79.4802 0.306055 78.9944 0.184142C78.5086 0.0622299 78.0181 0 77.5231 0C76.4467 0 75.4358 0.195788 74.4899 0.586999C73.5441 0.977847 72.7143 1.52554 72.0051 2.23409C71.2962 2.943 70.7362 3.78729 70.3272 4.77205C69.9179 5.75681 69.7135 6.83801 69.7135 8.01638C69.7135 9.27953 69.9179 10.4044 70.3272 11.3939C70.7362 12.3834 71.2962 13.2182 72.0051 13.9017C72.7143 14.5851 73.5415 15.1051 74.4899 15.464C75.438 15.8228 76.4493 16 77.5231 16C78.0181 16 78.5061 15.9381 78.9871 15.8162C79.4685 15.6939 79.9359 15.5262 80.3934 15.3144C80.8513 15.1029 81.286 14.8518 81.6998 14.5643C81.932 14.4028 82.1576 14.235 82.3766 14.0603C82.6544 13.8391 83.0631 13.8933 83.2718 14.18L84.2048 15.461C84.322 15.6219 84.5098 15.7172 84.7097 15.7172C85.0537 15.7172 85.3326 15.441 85.3326 15.1004V1.2264C85.3326 0.885775 85.0537 0.609926 84.7097 0.609926H84.6825C84.4981 0.609926 84.3231 0.691079 84.2044 0.831188Z" fill="white"></path><path d="M19.9873 0.378113L17.3051 3.39186C17.1996 3.51072 17.1419 3.66228 17.1419 3.81883V15.348C17.1419 15.708 17.4414 16 17.8113 16H20.6626C21.0325 16 21.3324 15.708 21.3324 15.348V0.651601C21.3324 0.291566 21.0325 0 20.6626 0H20.6291C20.4339 0 20.2489 0.0823156 20.1217 0.226176L19.9873 0.378113Z" fill="white"></path><path d="M13.8313 0.0292343H10.7334C10.5461 0.0292343 10.3684 0.111937 10.2463 0.2558L5.18058 6.21113C4.79088 6.66926 4.04977 6.38961 4.04977 5.78454V0.653155C4.04977 0.292727 3.76166 0 3.40646 0H0.643687C0.288105 0 0 0.292727 0 0.653155V15.3468C0 15.7077 0.288105 16 0.643687 16H3.40646C3.76166 16 4.04977 15.7077 4.04977 15.3468V10.2451C4.04977 9.63962 4.79088 9.35997 5.18058 9.8181L10.2463 15.7738C10.3684 15.9173 10.5461 16 10.7334 16H13.8313C14.3829 16 14.6789 15.3422 14.3177 14.9191L8.78265 8.44255C8.57301 8.19714 8.57301 7.83248 8.78265 7.58668L14.3177 1.11052C14.6789 0.68739 14.3829 0.0292343 13.8313 0.0292343Z" fill="white">
           </path>
           <path d="M36.415 2.05838C35.7772 1.41929 35.0287 0.91601 34.1752 0.54855C33.3213 0.18373 32.4124 0 31.4504 0C30.5559 0 29.6997 0.159585 28.8796 0.476869C28.0594 0.794152 27.3253 1.24725 26.678 1.83164L25.5439 0.528555C25.4218 0.38821 25.2447 0.307475 25.0582 0.307475H25.0229C24.668 0.307475 24.3802 0.593822 24.3802 0.946947V15.3609C24.3802 15.714 24.668 16 25.0229 16H27.7598C28.1147 16 28.4022 15.714 28.4022 15.3609V7.03381C28.4022 6.62372 28.4814 6.23476 28.6373 5.86994C28.7931 5.50248 29.0092 5.18293 29.2849 4.91129C29.5606 4.63928 29.8844 4.42235 30.2564 4.26692C30.6302 4.11186 31.0261 4.03339 31.4504 4.03339C31.8633 4.03339 32.2516 4.11186 32.6137 4.26692C32.9785 4.42462 33.2974 4.63928 33.5708 4.91129C33.8442 5.18293 34.0622 5.50512 34.2184 5.86994C34.3742 6.2374 34.4531 6.62372 34.4531 7.03381V15.3609C34.4531 15.714 34.7409 16 35.0958 16H37.8327C38.1877 16 38.4754 15.714 38.4754 15.3609V7.03381C38.4754 6.068 38.2904 5.1569 37.9237 4.3005C37.5567 3.44673 37.0531 2.69748 36.415 2.05838Z" fill="white"></path><path d="M54.4618 8.98225C54.1975 8.39487 53.8453 7.89035 53.3978 7.4714C52.9499 7.05244 52.4218 6.7256 51.8192 6.49165C51.217 6.2577 50.5719 6.14092 49.8888 6.14092H45.737C45.463 6.14092 45.23 6.0384 45.0347 5.83374C44.8394 5.62908 44.7419 5.38318 44.7419 5.09296C44.7419 4.81276 44.8394 4.5738 45.0347 4.37415C45.23 4.1745 45.463 4.07468 45.737 4.07468H53.1836C53.5359 4.07468 53.8212 3.78214 53.8212 3.42139V0.653289C53.8212 0.292535 53.5359 0 53.1836 0H45.7348C45.0419 0 44.3941 0.131814 43.7897 0.397369C43.1848 0.660612 42.659 1.02368 42.2111 1.48195C41.7636 1.93983 41.4091 2.48096 41.152 3.09725C40.8923 3.71623 40.764 4.37916 40.764 5.08795C40.764 5.79712 40.8923 6.46005 41.152 7.07904C41.4091 7.69802 41.7636 8.23877 42.2111 8.70166C42.659 9.16494 43.1871 9.53301 43.7897 9.80319C44.3941 10.0738 45.0419 10.2079 45.7348 10.2079H50.0224C50.4601 10.2079 50.8395 10.5432 50.8779 10.9899C50.922 11.5002 50.5305 11.9284 50.0412 11.9284H41.3993C41.047 11.9284 40.7617 12.2206 40.7617 12.5813V15.3471C40.7617 15.7079 41.047 16 41.3993 16H49.8862C50.5697 16 51.2121 15.8686 51.817 15.603C52.4218 15.3398 52.9476 14.974 53.3955 14.5111C53.8426 14.0482 54.1998 13.5098 54.4618 12.8954C54.7237 12.2815 54.857 11.6212 54.857 10.9121C54.857 10.2125 54.726 9.56924 54.4618 8.98225Z" fill="white">
           </path>
           </svg>