<svg width="37" height="40" viewBox="0 0 37 40" fill="none" xmlns="http://www.w3.org/2000/svg">
<g id="&#240;&#159;&#166;&#134; icon &#34;business outline&#34;">
<g id="Group">
<path id="Vector" d="M11.7693 33.3077V38.6924" stroke="white" stroke-width="1.32" stroke-linecap="round" stroke-linejoin="round"/>
<path id="Vector_2" d="M3.69231 1H19.8462C20.5602 1 21.245 1.28365 21.7499 1.78856C22.2548 2.29346 22.5385 2.97826 22.5385 3.69231V38.3558C22.5385 38.445 22.503 38.5306 22.4399 38.5937C22.3768 38.6569 22.2912 38.6923 22.2019 38.6923H1V3.69231C1 2.97826 1.28365 2.29346 1.78856 1.78856C2.29346 1.28365 2.97826 1 3.69231 1Z" stroke="white" stroke-width="1.32" stroke-linecap="round" stroke-linejoin="round"/>
<path id="Vector_3" d="M23.8847 14.4614H33.3078C34.0219 14.4614 34.7066 14.7451 35.2116 15.25C35.7165 15.7549 36.0001 16.4397 36.0001 17.1537V38.6922H22.5386V15.8076C22.5386 15.4506 22.6804 15.1082 22.9329 14.8557C23.1853 14.6033 23.5277 14.4614 23.8847 14.4614Z" stroke="white" stroke-width="1.32" stroke-linecap="round" stroke-linejoin="round"/>
</g>
<path id="Vector_4" d="M5.2136 34.6429C4.9348 34.6793 4.65158 34.6276 4.40369 34.4949C4.15581 34.3622 3.9557 34.1552 3.83144 33.9029C3.70719 33.6507 3.66504 33.3659 3.7109 33.0885C3.75676 32.8111 3.88833 32.555 4.08715 32.3562C4.28597 32.1574 4.54205 32.0258 4.81946 31.9799C5.09687 31.9341 5.38167 31.9762 5.6339 32.1005C5.88613 32.2247 6.09312 32.4249 6.22582 32.6727C6.35852 32.9206 6.41028 33.2038 6.37381 33.4826C6.33533 33.7769 6.20072 34.0501 5.9909 34.2599C5.78108 34.4698 5.50782 34.6044 5.2136 34.6429Z" fill="white"/>
<path id="Vector_5" d="M5.2136 27.9121C4.9348 27.9486 4.65158 27.8969 4.40369 27.7642C4.15581 27.6315 3.9557 27.4245 3.83144 27.1722C3.70719 26.92 3.66504 26.6352 3.7109 26.3578C3.75676 26.0804 3.88833 25.8243 4.08715 25.6255C4.28597 25.4267 4.54205 25.2951 4.81946 25.2492C5.09687 25.2034 5.38167 25.2455 5.6339 25.3698C5.88613 25.494 6.09312 25.6941 6.22582 25.942C6.35852 26.1899 6.41028 26.4731 6.37381 26.7519C6.33533 27.0461 6.20072 27.3194 5.9909 27.5292C5.78108 27.739 5.50782 27.8737 5.2136 27.9121Z" fill="white"/>
<path id="Vector_6" d="M5.2136 21.1813C4.9348 21.2178 4.65158 21.166 4.40369 21.0333C4.15581 20.9006 3.9557 20.6936 3.83144 20.4414C3.70719 20.1892 3.66504 19.9044 3.7109 19.627C3.75676 19.3495 3.88833 19.0935 4.08715 18.8946C4.28597 18.6958 4.54205 18.5643 4.81946 18.5184C5.09687 18.4725 5.38167 18.5147 5.6339 18.6389C5.88613 18.7632 6.09312 18.9633 6.22582 19.2112C6.35852 19.4591 6.41028 19.7423 6.37381 20.0211C6.33533 20.3153 6.20072 20.5886 5.9909 20.7984C5.78108 21.0082 5.50782 21.1428 5.2136 21.1813Z" fill="white"/>
<path id="Vector_7" d="M5.2136 14.4506C4.9348 14.4871 4.65158 14.4353 4.40369 14.3026C4.15581 14.1699 3.9557 13.9629 3.83144 13.7107C3.70719 13.4585 3.66504 13.1736 3.7109 12.8962C3.75676 12.6188 3.88833 12.3628 4.08715 12.1639C4.28597 11.9651 4.54205 11.8335 4.81946 11.7877C5.09687 11.7418 5.38167 11.784 5.6339 11.9082C5.88613 12.0325 6.09312 12.2326 6.22582 12.4805C6.35852 12.7284 6.41028 13.0116 6.37381 13.2904C6.33533 13.5846 6.20072 13.8579 5.9909 14.0677C5.78108 14.2775 5.50782 14.4121 5.2136 14.4506Z" fill="white"/>
<path id="Vector_8" d="M5.2136 7.71988C4.9348 7.75635 4.65158 7.70459 4.40369 7.57189C4.15581 7.43919 3.9557 7.2322 3.83144 6.97997C3.70719 6.72774 3.66504 6.44294 3.7109 6.16553C3.75676 5.88812 3.88833 5.63204 4.08715 5.43322C4.28597 5.2344 4.54205 5.10283 4.81946 5.05697C5.09687 5.01111 5.38167 5.05326 5.6339 5.17751C5.88613 5.30177 6.09312 5.50188 6.22582 5.74976C6.35852 5.99765 6.41028 6.28087 6.37381 6.55967C6.33533 6.85389 6.20072 7.12715 5.9909 7.33697C5.78108 7.54679 5.50782 7.6814 5.2136 7.71988Z" fill="white"/>
<path id="Vector_9" d="M11.9443 27.9121C11.6655 27.9486 11.3823 27.8969 11.1344 27.7642C10.8865 27.6315 10.6864 27.4245 10.5622 27.1722C10.4379 26.92 10.3958 26.6352 10.4416 26.3578C10.4875 26.0804 10.619 25.8243 10.8179 25.6255C11.0167 25.4267 11.2728 25.2951 11.5502 25.2492C11.8276 25.2034 12.1124 25.2455 12.3646 25.3698C12.6168 25.494 12.8238 25.6941 12.9565 25.942C13.0892 26.1899 13.141 26.4731 13.1045 26.7519C13.066 27.0461 12.9314 27.3194 12.7216 27.5292C12.5118 27.739 12.2385 27.8737 11.9443 27.9121Z" fill="white"/>
<path id="Vector_10" d="M11.9443 21.1813C11.6655 21.2178 11.3823 21.166 11.1344 21.0333C10.8865 20.9006 10.6864 20.6936 10.5622 20.4414C10.4379 20.1892 10.3958 19.9044 10.4416 19.627C10.4875 19.3495 10.619 19.0935 10.8179 18.8946C11.0167 18.6958 11.2728 18.5643 11.5502 18.5184C11.8276 18.4725 12.1124 18.5147 12.3646 18.6389C12.6168 18.7632 12.8238 18.9633 12.9565 19.2112C13.0892 19.4591 13.141 19.7423 13.1045 20.0211C13.066 20.3153 12.9314 20.5886 12.7216 20.7984C12.5118 21.0082 12.2385 21.1428 11.9443 21.1813Z" fill="white"/>
<path id="Vector_11" d="M11.9443 14.4506C11.6655 14.4871 11.3823 14.4353 11.1344 14.3026C10.8865 14.1699 10.6864 13.9629 10.5622 13.7107C10.4379 13.4585 10.3958 13.1736 10.4416 12.8962C10.4875 12.6188 10.619 12.3628 10.8179 12.1639C11.0167 11.9651 11.2728 11.8335 11.5502 11.7877C11.8276 11.7418 12.1124 11.784 12.3646 11.9082C12.6168 12.0325 12.8238 12.2326 12.9565 12.4805C13.0892 12.7284 13.141 13.0116 13.1045 13.2904C13.066 13.5846 12.9314 13.8579 12.7216 14.0677C12.5118 14.2775 12.2385 14.4121 11.9443 14.4506Z" fill="white"/>
<path id="Vector_12" d="M11.9443 7.71988C11.6655 7.75635 11.3823 7.70459 11.1344 7.57189C10.8865 7.43919 10.6864 7.2322 10.5622 6.97997C10.4379 6.72774 10.3958 6.44294 10.4416 6.16553C10.4875 5.88812 10.619 5.63204 10.8179 5.43322C11.0167 5.2344 11.2728 5.10283 11.5502 5.05697C11.8276 5.01111 12.1124 5.05326 12.3646 5.17751C12.6168 5.30177 12.8238 5.50188 12.9565 5.74976C13.0892 5.99765 13.141 6.28087 13.1045 6.55967C13.066 6.85389 12.9314 7.12715 12.7216 7.33697C12.5118 7.54679 12.2385 7.6814 11.9443 7.71988Z" fill="white"/>
<path id="Vector_13" d="M18.675 34.6429C18.3962 34.6793 18.113 34.6276 17.8651 34.4949C17.6172 34.3622 17.4171 34.1552 17.2929 33.9029C17.1686 33.6507 17.1265 33.3659 17.1723 33.0885C17.2182 32.8111 17.3498 32.555 17.5486 32.3562C17.7474 32.1574 18.0035 32.0258 18.2809 31.9799C18.5583 31.9341 18.8431 31.9762 19.0953 32.1005C19.3476 32.2247 19.5545 32.4249 19.6872 32.6727C19.8199 32.9206 19.8717 33.2038 19.8352 33.4826C19.7968 33.7769 19.6621 34.0501 19.4523 34.2599C19.2425 34.4698 18.9692 34.6044 18.675 34.6429Z" fill="white"/>
<path id="Vector_14" d="M18.675 27.9121C18.3962 27.9486 18.113 27.8969 17.8651 27.7642C17.6172 27.6315 17.4171 27.4245 17.2929 27.1722C17.1686 26.92 17.1265 26.6352 17.1723 26.3578C17.2182 26.0804 17.3498 25.8243 17.5486 25.6255C17.7474 25.4267 18.0035 25.2951 18.2809 25.2492C18.5583 25.2034 18.8431 25.2455 19.0953 25.3698C19.3476 25.494 19.5545 25.6941 19.6872 25.942C19.8199 26.1899 19.8717 26.4731 19.8352 26.7519C19.7968 27.0461 19.6621 27.3194 19.4523 27.5292C19.2425 27.739 18.9692 27.8737 18.675 27.9121Z" fill="white"/>
<path id="Vector_15" d="M18.675 21.1813C18.3962 21.2178 18.113 21.166 17.8651 21.0333C17.6172 20.9006 17.4171 20.6936 17.2929 20.4414C17.1686 20.1892 17.1265 19.9044 17.1723 19.627C17.2182 19.3495 17.3498 19.0935 17.5486 18.8946C17.7474 18.6958 18.0035 18.5643 18.2809 18.5184C18.5583 18.4725 18.8431 18.5147 19.0953 18.6389C19.3476 18.7632 19.5545 18.9633 19.6872 19.2112C19.8199 19.4591 19.8717 19.7423 19.8352 20.0211C19.7968 20.3153 19.6621 20.5886 19.4523 20.7984C19.2425 21.0082 18.9692 21.1428 18.675 21.1813Z" fill="white"/>
<path id="Vector_16" d="M19.4536 14.0683C19.9777 13.5442 19.9756 12.6924 19.4489 12.1657C18.9222 11.639 18.0704 11.6369 17.5463 12.161C17.0222 12.685 17.0244 13.5368 17.5511 14.0635C18.0778 14.5902 18.9296 14.5923 19.4536 14.0683Z" fill="white"/>
<path id="Vector_17" d="M18.675 7.71988C18.3962 7.75635 18.113 7.70459 17.8651 7.57189C17.6172 7.43919 17.4171 7.2322 17.2929 6.97997C17.1686 6.72774 17.1265 6.44294 17.1723 6.16553C17.2182 5.88812 17.3498 5.63204 17.5486 5.43322C17.7474 5.2344 18.0035 5.10283 18.2809 5.05697C18.5583 5.01111 18.8431 5.05326 19.0953 5.17751C19.3476 5.30177 19.5545 5.50188 19.6872 5.74976C19.8199 5.99765 19.8717 6.28087 19.8352 6.55967C19.7968 6.85389 19.6621 7.12715 19.4523 7.33697C19.2425 7.54679 18.9692 7.6814 18.675 7.71988Z" fill="white"/>
<path id="Vector_18" d="M30.6154 31.9614C30.3492 31.9614 30.0889 32.0404 29.8676 32.1883C29.6462 32.3362 29.4736 32.5465 29.3718 32.7924C29.2699 33.0384 29.2432 33.3091 29.2952 33.5702C29.3471 33.8313 29.4753 34.0712 29.6636 34.2595C29.8518 34.4477 30.0917 34.5759 30.3528 34.6279C30.6139 34.6798 30.8846 34.6532 31.1306 34.5513C31.3766 34.4494 31.5868 34.2768 31.7347 34.0555C31.8826 33.8341 31.9616 33.5738 31.9616 33.3076C31.9616 32.9506 31.8198 32.6082 31.5673 32.3557C31.3149 32.1033 30.9725 31.9614 30.6154 31.9614Z" fill="white"/>
<path id="Vector_19" d="M30.6154 25.2307C30.3492 25.2307 30.0889 25.3097 29.8676 25.4576C29.6462 25.6055 29.4736 25.8157 29.3718 26.0617C29.2699 26.3077 29.2432 26.5784 29.2952 26.8395C29.3471 27.1006 29.4753 27.3405 29.6636 27.5287C29.8518 27.717 30.0917 27.8452 30.3528 27.8972C30.6139 27.9491 30.8846 27.9224 31.1306 27.8206C31.3766 27.7187 31.5868 27.5461 31.7347 27.3248C31.8826 27.1034 31.9616 26.8431 31.9616 26.5769C31.9616 26.2198 31.8198 25.8774 31.5673 25.625C31.3149 25.3725 30.9725 25.2307 30.6154 25.2307Z" fill="white"/>
<path id="Vector_20" d="M30.6154 18.5C30.3492 18.5 30.0889 18.579 29.8676 18.7269C29.6462 18.8748 29.4736 19.085 29.3718 19.331C29.2699 19.577 29.2432 19.8476 29.2952 20.1088C29.3471 20.3699 29.4753 20.6098 29.6636 20.798C29.8518 20.9863 30.0917 21.1145 30.3528 21.1664C30.6139 21.2184 30.8846 21.1917 31.1306 21.0898C31.3766 20.988 31.5868 20.8154 31.7347 20.594C31.8826 20.3727 31.9616 20.1124 31.9616 19.8462C31.9616 19.4891 31.8198 19.1467 31.5673 18.8943C31.3149 18.6418 30.9725 18.5 30.6154 18.5Z" fill="white"/>
<path id="Vector_21" d="M25.2307 31.9614C24.9644 31.9614 24.7042 32.0404 24.4828 32.1883C24.2614 32.3362 24.0889 32.5465 23.987 32.7924C23.8851 33.0384 23.8584 33.3091 23.9104 33.5702C23.9623 33.8313 24.0905 34.0712 24.2788 34.2595C24.4671 34.4477 24.7069 34.5759 24.9681 34.6279C25.2292 34.6798 25.4998 34.6532 25.7458 34.5513C25.9918 34.4494 26.202 34.2768 26.35 34.0555C26.4979 33.8341 26.5768 33.5738 26.5768 33.3076C26.5768 32.9506 26.435 32.6082 26.1826 32.3557C25.9301 32.1033 25.5877 31.9614 25.2307 31.9614Z" fill="white"/>
<path id="Vector_22" d="M25.2307 25.2307C24.9644 25.2307 24.7042 25.3097 24.4828 25.4576C24.2614 25.6055 24.0889 25.8157 23.987 26.0617C23.8851 26.3077 23.8584 26.5784 23.9104 26.8395C23.9623 27.1006 24.0905 27.3405 24.2788 27.5287C24.4671 27.717 24.7069 27.8452 24.9681 27.8972C25.2292 27.9491 25.4998 27.9224 25.7458 27.8206C25.9918 27.7187 26.202 27.5461 26.35 27.3248C26.4979 27.1034 26.5768 26.8431 26.5768 26.5769C26.5768 26.2198 26.435 25.8774 26.1826 25.625C25.9301 25.3725 25.5877 25.2307 25.2307 25.2307Z" fill="white"/>
<path id="Vector_23" d="M25.2307 18.5C24.9644 18.5 24.7042 18.579 24.4828 18.7269C24.2614 18.8748 24.0889 19.085 23.987 19.331C23.8851 19.577 23.8584 19.8476 23.9104 20.1088C23.9623 20.3699 24.0905 20.6098 24.2788 20.798C24.4671 20.9863 24.7069 21.1145 24.9681 21.1664C25.2292 21.2184 25.4998 21.1917 25.7458 21.0898C25.9918 20.988 26.202 20.8154 26.35 20.594C26.4979 20.3727 26.5768 20.1124 26.5768 19.8462C26.5768 19.4891 26.435 19.1467 26.1826 18.8943C25.9301 18.6418 25.5877 18.5 25.2307 18.5Z" fill="white"/>
</g>
</svg>
